<svg width="40" height="40" viewBox="0 0 40 40" fill="none" xmlns="http://www.w3.org/2000/svg">
<circle cx="20" cy="20" r="19.5" fill="white" stroke="#009D2C"/>
<path fill-rule="evenodd" clip-rule="evenodd" d="M15.5521 9.70244C13.8945 10.148 12.2477 10.6327 10.613 11.1561C10.4651 11.2017 10.3331 11.2882 10.2321 11.4055C10.1311 11.5229 10.0652 11.6664 10.0421 11.8194C9.07604 18.8827 11.3054 24.0375 13.9644 27.4323C15.2984 29.1361 16.7429 30.3976 17.9464 31.2259C18.55 31.6391 19.081 31.94 19.4997 32.1321C19.71 32.2282 19.8804 32.2934 20.0109 32.3315C20.0684 32.35 20.1271 32.3645 20.1867 32.375C20.1994 32.3732 20.2555 32.3659 20.3625 32.3333C20.493 32.2934 20.6634 32.2282 20.8736 32.1321C21.2905 31.94 21.8252 31.6391 22.4269 31.2259C23.936 30.167 25.2783 28.8884 26.409 27.4323C29.0679 24.0375 31.2973 18.8827 30.3312 11.8194C30.3081 11.6664 30.2423 11.5229 30.1413 11.4055C30.0403 11.2882 29.9082 11.2017 29.7603 11.1561C28.6257 10.7936 26.7117 10.2027 24.8212 9.70244C22.8891 9.19313 21.111 8.8125 20.1867 8.8125C19.2623 8.8125 17.486 9.19313 15.5521 9.70244ZM15.0881 7.95156C16.9785 7.45131 18.985 7 20.1867 7C21.3865 7 23.3948 7.45131 25.2852 7.95156C26.9714 8.40428 28.6466 8.89681 30.3095 9.42875C31.2665 9.73325 31.9879 10.5579 32.1274 11.5747C33.166 19.1818 30.7572 24.8187 27.8372 28.5488C26.5929 30.1496 25.1156 31.5548 23.4546 32.7176C22.877 33.1221 22.2665 33.4774 21.6294 33.7797C21.14 34.0044 20.618 34.1875 20.1867 34.1875C19.7553 34.1875 19.2333 34.0044 18.7439 33.7797C18.1067 33.4777 17.4961 33.1224 16.9187 32.7176C15.2584 31.5547 13.7817 30.1495 12.5379 28.5488C9.61436 24.8187 7.20736 19.1818 8.24592 11.5747C8.31536 11.0819 8.52295 10.6187 8.84468 10.239C9.16641 9.85918 9.58911 9.57827 10.0639 9.42875C11.7267 8.89683 13.4019 8.40429 15.0881 7.95156Z" fill="#009D2C"/>
<path d="M20.1865 10.1719C21.8341 10.1719 25.9648 11.4134 27.8969 12.0243C28.2083 12.1197 28.4857 12.3024 28.6965 12.5507C28.9072 12.7991 29.0423 13.1026 29.0859 13.4253C30.5613 25.0688 21.6003 30.5571 20.1865 30.5571V10.1719Z" fill="#009D2C"/>
</svg>
