<svg width="40" height="40" viewBox="0 0 40 40" fill="none" xmlns="http://www.w3.org/2000/svg">
<path d="M39.5 20C39.5 30.7696 30.7696 39.5 20 39.5C9.23045 39.5 0.5 30.7696 0.5 20C0.5 9.23045 9.23045 0.5 20 0.5C30.7696 0.5 39.5 9.23045 39.5 20Z" fill="white" stroke="#009D2C"/>
<path d="M9.5 10.6666V24.6666C9.5 25.9534 10.5465 26.9999 11.8333 26.9999H16.017L20 30.9829L23.983 26.9999H28.1667C29.4535 26.9999 30.5 25.9534 30.5 24.6666V10.6666C30.5 9.37975 29.4535 8.33325 28.1667 8.33325H11.8333C10.5465 8.33325 9.5 9.37975 9.5 10.6666ZM11.8333 10.6666H28.1667V24.6666H23.017L20 27.6836L16.983 24.6666H11.8333V10.6666Z" fill="#009D2C"/>
<path d="M26.0751 14.4082L24.4255 12.7585L18.8336 18.3504L16.1585 15.6752L14.5088 17.3249L18.8336 21.6497L26.0751 14.4082Z" fill="#009D2C"/>
</svg>
