<svg width="40" height="40" viewBox="0 0 40 40" fill="none" xmlns="http://www.w3.org/2000/svg">
<path d="M39.5 20C39.5 30.7696 30.7696 39.5 20 39.5C9.23045 39.5 0.5 30.7696 0.5 20C0.5 9.23045 9.23045 0.5 20 0.5C30.7696 0.5 39.5 9.23045 39.5 20Z" fill="white" stroke="#009D2C"/>
<g clip-path="url(#clip0)">
<path d="M20 34C20.9283 34 21.8185 33.6313 22.4749 32.9749C23.1313 32.3185 23.5 31.4283 23.5 30.5H16.5C16.5 31.4283 16.8687 32.3185 17.5251 32.9749C18.1815 33.6313 19.0717 34 20 34Z" fill="#009D2C"/>
<path fill-rule="evenodd" clip-rule="evenodd" d="M20 9.35657L18.6053 9.63832C17.0232 9.96067 15.6011 10.8197 14.5796 12.0702C13.5582 13.3206 13.0002 14.8855 13 16.5001C13 17.5991 12.7655 20.3448 12.1967 23.0486C11.9167 24.3908 11.5387 25.7891 11.0365 27.0001H28.9635C28.4613 25.7891 28.085 24.3926 27.8032 23.0486C27.2345 20.3448 27 17.5991 27 16.5001C26.9994 14.8858 26.4412 13.3213 25.4198 12.0712C24.3984 10.8212 22.9765 9.96236 21.3947 9.64007L20 9.35482V9.35657ZM30.885 27.0001C31.2753 27.7823 31.7267 28.4018 32.25 28.7501H7.75C8.27325 28.4018 8.72475 27.7823 9.115 27.0001C10.69 23.8501 11.25 18.0401 11.25 16.5001C11.25 12.2651 14.26 8.73007 18.2587 7.92332C18.2343 7.67999 18.2612 7.43424 18.3376 7.20192C18.4139 6.9696 18.5382 6.75587 18.7022 6.57452C18.8663 6.39316 19.0666 6.24821 19.2901 6.149C19.5136 6.04979 19.7554 5.99854 20 5.99854C20.2446 5.99854 20.4864 6.04979 20.7099 6.149C20.9334 6.24821 21.1337 6.39316 21.2978 6.57452C21.4618 6.75587 21.5861 6.9696 21.6624 7.20192C21.7388 7.43424 21.7657 7.67999 21.7413 7.92332C23.7192 8.32564 25.4974 9.3992 26.7747 10.9622C28.0519 12.5252 28.7497 14.4816 28.75 16.5001C28.75 18.0401 29.31 23.8501 30.885 27.0001Z" fill="#009D2C"/>
</g>
<defs>
<clipPath id="clip0">
<rect width="28" height="28" fill="white" transform="translate(6 6)"/>
</clipPath>
</defs>
</svg>
