<svg width="437" height="186" viewBox="0 0 437 186" fill="none" xmlns="http://www.w3.org/2000/svg">
<path d="M246.503 80.5966C248.056 80.5966 249.316 79.3374 249.316 77.7841C249.316 76.2308 248.056 74.9716 246.503 74.9716C244.95 74.9716 243.691 76.2308 243.691 77.7841C243.691 79.3374 244.95 80.5966 246.503 80.5966ZM322.898 75.5021H317.004V77.407H322.898V75.5021ZM334.469 83.179C337.269 83.179 339.308 81.5746 339.301 79.3629C339.308 77.7266 338.285 76.5504 336.45 76.2884V76.1861C337.869 75.8793 338.822 74.8246 338.816 73.3544C338.822 71.3601 337.122 69.7301 334.507 69.7301C331.963 69.7301 329.994 71.245 329.943 73.4375H332.225C332.264 72.3381 333.286 71.6541 334.494 71.6541C335.715 71.6541 336.527 72.3956 336.521 73.495C336.527 74.6392 335.581 75.3999 334.226 75.3999H333.069V77.228H334.226C335.882 77.228 336.866 78.0589 336.86 79.2415C336.866 80.3984 335.862 81.1911 334.463 81.1911C333.146 81.1911 332.129 80.5071 332.072 79.4396H329.669C329.732 81.6513 331.708 83.179 334.469 83.179ZM346.289 83.179C349.115 83.1982 351.013 81.255 351.007 78.6662C351.013 76.1925 349.249 74.4027 346.954 74.4027C345.548 74.4027 344.308 75.0866 343.681 76.2116H343.592C343.598 73.4567 344.608 71.782 346.424 71.782C347.549 71.782 348.309 72.4339 348.552 73.4375H350.885C350.604 71.3217 348.897 69.7301 346.424 69.7301C343.279 69.7301 341.291 72.3509 341.291 76.8253C341.284 81.6257 343.777 83.1662 346.289 83.179ZM346.277 81.2614C344.877 81.2614 343.854 80.1044 343.848 78.7365C343.86 77.3622 344.922 76.2116 346.309 76.2116C347.696 76.2116 348.712 77.3111 348.706 78.7173C348.712 80.1491 347.664 81.2614 346.277 81.2614ZM358.537 69.2955H356.51L352.292 84.9688H354.318L358.537 69.2955ZM360.467 83H362.928L368.489 71.9354V69.9091H359.572V71.8906H366.034V71.9801L360.467 83ZM374.927 83.179C377.695 83.179 379.626 81.2997 379.626 78.6982C379.626 76.1797 377.874 74.3643 375.496 74.3643C374.435 74.3643 373.496 74.7862 373.01 75.3615H372.933L373.31 71.8906H378.942V69.9091H371.348L370.664 76.6591L372.805 77.0107C373.246 76.5249 374.077 76.1989 374.863 76.2053C376.302 76.2116 377.337 77.2727 377.331 78.7557C377.337 80.2195 376.327 81.2614 374.927 81.2614C373.745 81.2614 372.792 80.5135 372.709 79.4396H370.408C370.472 81.6129 372.371 83.179 374.927 83.179ZM246.503 102.597C248.056 102.597 249.316 101.337 249.316 99.7841C249.316 98.2308 248.056 96.9716 246.503 96.9716C244.95 96.9716 243.691 98.2308 243.691 99.7841C243.691 101.337 244.95 102.597 246.503 102.597ZM327.433 97.5021H321.539V99.407H327.433V97.5021ZM339.004 105.179C341.804 105.179 343.843 103.575 343.836 101.363C343.843 99.7266 342.82 98.5504 340.986 98.2884V98.1861C342.405 97.8793 343.357 96.8246 343.351 95.3544C343.357 93.3601 341.657 91.7301 339.042 91.7301C336.498 91.7301 334.53 93.245 334.479 95.4375H336.76C336.799 94.3381 337.822 93.6541 339.03 93.6541C340.251 93.6541 341.062 94.3956 341.056 95.495C341.062 96.6392 340.116 97.3999 338.761 97.3999H337.604V99.228H338.761C340.417 99.228 341.401 100.059 341.395 101.241C341.401 102.398 340.398 103.191 338.998 103.191C337.681 103.191 336.665 102.507 336.607 101.44H334.204C334.268 103.651 336.243 105.179 339.004 105.179ZM350.582 105.179C353.349 105.179 355.28 103.3 355.28 100.698C355.28 98.1797 353.528 96.3643 351.151 96.3643C350.089 96.3643 349.15 96.7862 348.664 97.3615H348.587L348.964 93.8906H354.596V91.9091H347.002L346.318 98.6591L348.46 99.0107C348.901 98.5249 349.732 98.1989 350.518 98.2053C351.956 98.2116 352.991 99.2727 352.985 100.756C352.991 102.219 351.982 103.261 350.582 103.261C349.399 103.261 348.447 102.513 348.364 101.44H346.062C346.126 103.613 348.025 105.179 350.582 105.179ZM362.79 91.2955H360.764L356.545 106.969H358.572L362.79 91.2955ZM364.721 105H367.182L372.743 93.9354V91.9091H363.826V93.8906H370.288V93.9801L364.721 105ZM379.181 105.179C381.949 105.179 383.879 103.3 383.879 100.698C383.879 98.1797 382.128 96.3643 379.75 96.3643C378.689 96.3643 377.749 96.7862 377.264 97.3615H377.187L377.564 93.8906H383.195V91.9091H375.602L374.918 98.6591L377.059 99.0107C377.5 98.5249 378.331 98.1989 379.117 98.2053C380.556 98.2116 381.591 99.2727 381.585 100.756C381.591 102.219 380.581 103.261 379.181 103.261C377.999 103.261 377.046 102.513 376.963 101.44H374.662C374.726 103.613 376.624 105.179 379.181 105.179ZM246.503 124.597C248.056 124.597 249.316 123.337 249.316 121.784C249.316 120.231 248.056 118.972 246.503 118.972C244.95 118.972 243.691 120.231 243.691 121.784C243.691 123.337 244.95 124.597 246.503 124.597ZM327.345 119.502H321.452V121.407H327.345V119.502ZM333.982 124.571H340.227V127H342.489V124.571H344.164V122.621H342.489V113.909H339.536L333.982 122.685V124.571ZM340.252 122.621H336.411V122.519L340.15 116.594H340.252V122.621ZM351.576 113.295H349.549L345.331 128.969H347.357L351.576 113.295ZM353.506 127H355.967L361.528 115.935V113.909H352.611V115.891H359.074V115.98L353.506 127ZM367.966 127.179C370.734 127.179 372.665 125.3 372.665 122.698C372.665 120.18 370.913 118.364 368.535 118.364C367.474 118.364 366.535 118.786 366.049 119.362H365.972L366.349 115.891H371.981V113.909H364.387L363.703 120.659L365.844 121.011C366.285 120.525 367.116 120.199 367.903 120.205C369.341 120.212 370.376 121.273 370.37 122.756C370.376 124.219 369.366 125.261 367.966 125.261C366.784 125.261 365.831 124.513 365.748 123.44H363.447C363.511 125.613 365.41 127.179 367.966 127.179Z" fill="black"/>
<path d="M270.061 74.0895H272.477C272.075 71.5199 269.85 69.7301 266.955 69.7301C263.528 69.7301 260.959 72.2486 260.959 76.4673C260.959 80.6094 263.413 83.179 267.025 83.179C270.266 83.179 272.586 81.0952 272.586 77.7202V76.1477H267.274V78.0014H270.291C270.253 79.8679 269.006 81.0504 267.038 81.0504C264.845 81.0504 263.343 79.4077 263.343 76.4418C263.343 73.495 264.871 71.8587 266.987 71.8587C268.565 71.8587 269.639 72.7024 270.061 74.0895ZM279.059 83.1918C281.936 83.1918 283.764 81.1655 283.764 78.1293C283.764 75.0866 281.936 73.054 279.059 73.054C276.183 73.054 274.355 75.0866 274.355 78.1293C274.355 81.1655 276.183 83.1918 279.059 83.1918ZM279.072 81.3381C277.481 81.3381 276.701 79.919 276.701 78.1229C276.701 76.3267 277.481 74.8885 279.072 74.8885C280.638 74.8885 281.418 76.3267 281.418 78.1229C281.418 79.919 280.638 81.3381 279.072 81.3381ZM290.011 83.1918C292.887 83.1918 294.715 81.1655 294.715 78.1293C294.715 75.0866 292.887 73.054 290.011 73.054C287.134 73.054 285.306 75.0866 285.306 78.1293C285.306 81.1655 287.134 83.1918 290.011 83.1918ZM290.023 81.3381C288.432 81.3381 287.652 79.919 287.652 78.1229C287.652 76.3267 288.432 74.8885 290.023 74.8885C291.589 74.8885 292.369 76.3267 292.369 78.1229C292.369 79.919 291.589 81.3381 290.023 81.3381ZM300.323 83.1726C302.01 83.1726 302.771 82.169 303.135 81.4531H303.276V83H305.551V69.9091H303.231V74.8054H303.135C302.784 74.0959 302.061 73.054 300.329 73.054C298.06 73.054 296.276 74.831 296.276 78.1037C296.276 81.3381 298.009 83.1726 300.323 83.1726ZM300.968 81.2741C299.441 81.2741 298.635 79.9318 298.635 78.0909C298.635 76.2628 299.428 74.9524 300.968 74.9524C302.458 74.9524 303.276 76.1861 303.276 78.0909C303.276 79.9957 302.445 81.2741 300.968 81.2741Z" fill="#39CA22"/>
<path d="M261.291 105H266.59C269.588 105 271.058 103.472 271.058 101.433C271.058 99.4517 269.652 98.2884 268.259 98.218V98.0902C269.537 97.7898 270.547 96.8949 270.547 95.3033C270.547 93.3537 269.141 91.9091 266.303 91.9091H261.291V105ZM263.663 103.018V99.1832H266.277C267.741 99.1832 268.648 100.078 268.648 101.248C268.648 102.29 267.933 103.018 266.213 103.018H263.663ZM263.663 97.4766V93.8651H266.06C267.453 93.8651 268.175 94.6001 268.175 95.6101C268.175 96.7607 267.242 97.4766 266.009 97.4766H263.663ZM275.844 105.198C277.385 105.198 278.305 104.476 278.727 103.651H278.804V105H281.028V98.429C281.028 95.8338 278.912 95.054 277.04 95.054C274.975 95.054 273.39 95.9744 272.878 97.7642L275.039 98.071C275.269 97.3999 275.921 96.8246 277.052 96.8246C278.126 96.8246 278.714 97.3743 278.714 98.3395V98.3778C278.714 99.0426 278.018 99.0746 276.285 99.2599C274.381 99.4645 272.559 100.033 272.559 102.245C272.559 104.175 273.971 105.198 275.844 105.198ZM276.445 103.498C275.48 103.498 274.79 103.057 274.79 102.207C274.79 101.318 275.563 100.947 276.599 100.8C277.206 100.717 278.42 100.564 278.721 100.321V101.478C278.721 102.571 277.839 103.498 276.445 103.498ZM286.998 105.173C288.686 105.173 289.447 104.169 289.811 103.453H289.952V105H292.227V91.9091H289.907V96.8054H289.811C289.459 96.0959 288.737 95.054 287.005 95.054C284.736 95.054 282.952 96.831 282.952 100.104C282.952 103.338 284.684 105.173 286.998 105.173ZM287.644 103.274C286.116 103.274 285.311 101.932 285.311 100.091C285.311 98.2628 286.104 96.9524 287.644 96.9524C289.133 96.9524 289.952 98.1861 289.952 100.091C289.952 101.996 289.121 103.274 287.644 103.274Z" fill="#E0B312"/>
<path d="M268.406 117.508H270.688C270.643 115.296 268.757 113.73 265.97 113.73C263.222 113.73 261.157 115.277 261.163 117.591C261.163 119.47 262.499 120.55 264.653 121.107L266.143 121.49C267.555 121.848 268.489 122.289 268.495 123.305C268.489 124.424 267.428 125.172 265.881 125.172C264.398 125.172 263.247 124.507 263.151 123.133H260.818C260.914 125.734 262.851 127.198 265.9 127.198C269.038 127.198 270.86 125.632 270.866 123.325C270.86 121.055 268.987 120.02 267.018 119.553L265.791 119.246C264.717 118.991 263.554 118.537 263.567 117.444C263.573 116.46 264.455 115.737 265.938 115.737C267.351 115.737 268.284 116.396 268.406 117.508ZM272.878 127H275.192V123.702L276.036 122.8L279.04 127H281.808L277.781 121.42L281.584 117.182H278.881L275.352 121.126H275.192V113.909H272.878V127ZM283.126 127H285.44V117.182H283.126V127ZM284.29 115.788C285.025 115.788 285.626 115.226 285.626 114.536C285.626 113.839 285.025 113.276 284.29 113.276C283.548 113.276 282.947 113.839 282.947 114.536C282.947 115.226 283.548 115.788 284.29 115.788ZM287.82 130.682H290.134V125.453H290.23C290.594 126.169 291.355 127.173 293.042 127.173C295.356 127.173 297.088 125.338 297.088 122.104C297.088 118.831 295.305 117.054 293.036 117.054C291.303 117.054 290.581 118.096 290.23 118.805H290.095V117.182H287.82V130.682ZM290.089 122.091C290.089 120.186 290.907 118.952 292.396 118.952C293.937 118.952 294.73 120.263 294.73 122.091C294.73 123.932 293.924 125.274 292.396 125.274C290.92 125.274 290.089 123.996 290.089 122.091Z" fill="#DF1818"/>
<path d="M188.788 104.53C188.788 88.6564 184.191 73.142 175.583 59.9604C166.975 46.7788 154.744 36.5257 140.447 30.5059C126.149 24.4861 110.432 22.9715 95.2942 26.155C80.1565 29.3385 66.2829 37.076 55.4385 48.3832L83.1756 76.4564C88.5978 70.8028 95.5346 66.934 103.103 65.3423C110.672 63.7506 118.531 64.5078 125.68 67.5177C132.828 70.5277 138.944 75.6542 143.248 82.245C147.552 88.8358 149.85 96.593 149.85 104.53H188.788Z" fill="#E0B312" stroke="white"/>
<path d="M55.4385 48.3833C42.5006 61.8732 34.6407 79.6406 33.2569 98.5245C31.8732 117.408 37.0553 136.184 47.8814 151.512C58.7076 166.84 74.4757 177.725 92.3805 182.231C110.285 186.738 129.166 184.574 145.663 176.123L128.288 140.326C120.039 144.552 110.599 145.634 101.647 143.381C92.6942 141.127 84.8101 135.685 79.397 128.021C73.984 120.357 71.3929 110.969 72.0848 101.527C72.7767 92.0851 76.7066 83.2015 83.1756 76.4565L55.4385 48.3833Z" fill="#39CA22" stroke="white"/>
<path d="M145.663 176.123C158.619 169.487 169.517 159.272 177.135 146.625C184.753 133.979 188.788 119.401 188.788 104.53H149.851C149.851 111.965 147.833 119.254 144.024 125.577C140.215 131.901 134.766 137.008 128.288 140.326L145.663 176.123Z" fill="#DF1818" stroke="white"/>
<path d="M140.446 30.5059L147.83 12" stroke="#ACCDF1" stroke-width="2"/>
<path d="M150.133 5.98438H151.035C151.465 5.98438 151.783 5.87695 151.99 5.66211C152.197 5.44727 152.301 5.16211 152.301 4.80664C152.301 4.46289 152.197 4.19531 151.99 4.00391C151.787 3.8125 151.506 3.7168 151.146 3.7168C150.822 3.7168 150.551 3.80664 150.332 3.98633C150.113 4.16211 150.004 4.39258 150.004 4.67773H148.311C148.311 4.23242 148.43 3.83398 148.668 3.48242C148.91 3.12695 149.246 2.84961 149.676 2.65039C150.109 2.45117 150.586 2.35156 151.105 2.35156C152.008 2.35156 152.715 2.56836 153.227 3.00195C153.738 3.43164 153.994 4.02539 153.994 4.7832C153.994 5.17383 153.875 5.5332 153.637 5.86133C153.398 6.18945 153.086 6.44141 152.699 6.61719C153.18 6.78906 153.537 7.04688 153.771 7.39062C154.01 7.73438 154.129 8.14062 154.129 8.60938C154.129 9.36719 153.852 9.97461 153.297 10.4316C152.746 10.8887 152.016 11.1172 151.105 11.1172C150.254 11.1172 149.557 10.8926 149.014 10.4434C148.475 9.99414 148.205 9.40039 148.205 8.66211H149.898C149.898 8.98242 150.018 9.24414 150.256 9.44727C150.498 9.65039 150.795 9.75195 151.146 9.75195C151.549 9.75195 151.863 9.64648 152.09 9.43555C152.32 9.2207 152.436 8.9375 152.436 8.58594C152.436 7.73438 151.967 7.30859 151.029 7.30859H150.133V5.98438ZM155.553 6.80469L156.045 2.46875H160.826V3.88086H157.434L157.223 5.71484C157.625 5.5 158.053 5.39258 158.506 5.39258C159.318 5.39258 159.955 5.64453 160.416 6.14844C160.877 6.65234 161.107 7.35742 161.107 8.26367C161.107 8.81445 160.99 9.30859 160.756 9.74609C160.525 10.1797 160.193 10.5176 159.76 10.7598C159.326 10.998 158.814 11.1172 158.225 11.1172C157.709 11.1172 157.23 11.0137 156.789 10.8066C156.348 10.5957 155.998 10.3008 155.74 9.92188C155.486 9.54297 155.352 9.11133 155.336 8.62695H157.012C157.047 8.98242 157.17 9.25977 157.381 9.45898C157.596 9.6543 157.875 9.75195 158.219 9.75195C158.602 9.75195 158.896 9.61523 159.104 9.3418C159.311 9.06445 159.414 8.67383 159.414 8.16992C159.414 7.68555 159.295 7.31445 159.057 7.05664C158.818 6.79883 158.48 6.66992 158.043 6.66992C157.641 6.66992 157.314 6.77539 157.064 6.98633L156.9 7.13867L155.553 6.80469ZM162.795 11.7324H161.535L164.676 2.46875H165.936L162.795 11.7324ZM172.48 3.41797L169.182 11H167.395L170.699 3.83984H166.457V2.46875H172.48V3.41797ZM173.822 6.80469L174.314 2.46875H179.096V3.88086H175.703L175.492 5.71484C175.895 5.5 176.322 5.39258 176.775 5.39258C177.588 5.39258 178.225 5.64453 178.686 6.14844C179.146 6.65234 179.377 7.35742 179.377 8.26367C179.377 8.81445 179.26 9.30859 179.025 9.74609C178.795 10.1797 178.463 10.5176 178.029 10.7598C177.596 10.998 177.084 11.1172 176.494 11.1172C175.979 11.1172 175.5 11.0137 175.059 10.8066C174.617 10.5957 174.268 10.3008 174.01 9.92188C173.756 9.54297 173.621 9.11133 173.605 8.62695H175.281C175.316 8.98242 175.439 9.25977 175.65 9.45898C175.865 9.6543 176.145 9.75195 176.488 9.75195C176.871 9.75195 177.166 9.61523 177.373 9.3418C177.58 9.06445 177.684 8.67383 177.684 8.16992C177.684 7.68555 177.564 7.31445 177.326 7.05664C177.088 6.79883 176.75 6.66992 176.312 6.66992C175.91 6.66992 175.584 6.77539 175.334 6.98633L175.17 7.13867L173.822 6.80469Z" fill="#ACCDF1"/>
<path d="M47.8818 151.512L32.124 163.257" stroke="#ACCDF1" stroke-width="2"/>
<path d="M2.37556 157.242H3.2779C3.70759 157.242 4.02595 157.134 4.23298 156.919C4.44001 156.705 4.54353 156.419 4.54353 156.064C4.54353 155.72 4.44001 155.453 4.23298 155.261C4.02985 155.07 3.7486 154.974 3.38923 154.974C3.06501 154.974 2.79353 155.064 2.57478 155.244C2.35603 155.419 2.24665 155.65 2.24665 155.935H0.553291C0.553291 155.49 0.672432 155.091 0.910713 154.74C1.1529 154.384 1.48884 154.107 1.91853 153.908C2.35212 153.708 2.82868 153.609 3.34821 153.609C4.25056 153.609 4.95759 153.826 5.46931 154.259C5.98103 154.689 6.23689 155.283 6.23689 156.041C6.23689 156.431 6.11774 156.791 5.87946 157.119C5.64118 157.447 5.32868 157.699 4.94196 157.875C5.42243 158.046 5.77985 158.304 6.01423 158.648C6.25251 158.992 6.37165 159.398 6.37165 159.867C6.37165 160.625 6.09431 161.232 5.53962 161.689C4.98884 162.146 4.25837 162.375 3.34821 162.375C2.49665 162.375 1.79939 162.15 1.25642 161.701C0.717354 161.251 0.447823 160.658 0.447823 159.919H2.14118C2.14118 160.24 2.26032 160.501 2.4986 160.705C2.74079 160.908 3.03767 161.009 3.38923 161.009C3.79157 161.009 4.10603 160.904 4.33259 160.693C4.56306 160.478 4.67829 160.195 4.67829 159.843C4.67829 158.992 4.20954 158.566 3.27204 158.566H2.37556V157.242ZM12.1373 153.638V155.033H11.9732C11.2076 155.044 10.5904 155.244 10.1217 155.63C9.65681 156.017 9.37751 156.554 9.28376 157.242C9.73689 156.781 10.3092 156.55 11.0006 156.55C11.7427 156.55 12.3326 156.816 12.7701 157.347C13.2076 157.878 13.4263 158.578 13.4263 159.445C13.4263 160 13.3052 160.501 13.0631 160.951C12.8248 161.4 12.4849 161.75 12.0435 162C11.606 162.25 11.1099 162.375 10.5552 162.375C9.65681 162.375 8.93024 162.062 8.37556 161.437C7.82478 160.812 7.54939 159.978 7.54939 158.935V158.326C7.54939 157.4 7.72321 156.583 8.07087 155.876C8.42243 155.166 8.92439 154.617 9.57673 154.23C10.233 153.839 10.9927 153.642 11.856 153.638H12.1373ZM10.4849 157.91C10.2115 157.91 9.96345 157.982 9.74079 158.126C9.51814 158.267 9.35407 158.455 9.2486 158.689V159.205C9.2486 159.771 9.35993 160.214 9.58259 160.535C9.80524 160.851 10.1177 161.009 10.5201 161.009C10.8834 161.009 11.1763 160.867 11.399 160.582C11.6256 160.292 11.7388 159.919 11.7388 159.462C11.7388 158.998 11.6256 158.623 11.399 158.337C11.1724 158.052 10.8677 157.91 10.4849 157.91ZM15.0377 162.99H13.7779L16.9185 153.726H18.1783L15.0377 162.99ZM24.7232 154.675L21.4244 162.257H19.6373L22.942 155.097H18.6998V153.726H24.7232V154.675ZM26.065 158.062L26.5572 153.726H31.3384V155.138H27.9459L27.7349 156.972C28.1373 156.757 28.565 156.65 29.0181 156.65C29.8306 156.65 30.4674 156.902 30.9283 157.406C31.3892 157.91 31.6197 158.615 31.6197 159.521C31.6197 160.072 31.5025 160.566 31.2681 161.003C31.0377 161.437 30.7056 161.775 30.272 162.017C29.8384 162.255 29.3267 162.375 28.7369 162.375C28.2213 162.375 27.7427 162.271 27.3013 162.064C26.8599 161.853 26.5103 161.558 26.2525 161.179C25.9986 160.8 25.8638 160.369 25.8482 159.884H27.524C27.5592 160.24 27.6822 160.517 27.8931 160.716C28.108 160.912 28.3873 161.009 28.731 161.009C29.1138 161.009 29.4088 160.873 29.6158 160.599C29.8228 160.322 29.9263 159.931 29.9263 159.427C29.9263 158.943 29.8072 158.572 29.5689 158.314C29.3306 158.056 28.9927 157.927 28.5552 157.927C28.1529 157.927 27.8267 158.033 27.5767 158.244L27.4127 158.396L26.065 158.062Z" fill="#ACCDF1"/>
<path d="M177.135 146.625L193.69 157.149" stroke="#ACCDF1" stroke-width="3"/>
<path d="M199.28 152.938H200.247V154.304H199.28V156.149H197.587V154.304H194.089L194.013 153.237L197.569 147.618H199.28V152.938ZM195.7 152.938H197.587V149.927L197.476 150.12L195.7 152.938ZM201.765 156.882H200.505L203.646 147.618H204.905L201.765 156.882ZM211.45 148.567L208.151 156.149H206.364L209.669 148.989H205.427V147.618H211.45V148.567ZM212.792 151.954L213.284 147.618H218.065V149.03H214.673L214.462 150.864C214.864 150.649 215.292 150.542 215.745 150.542C216.558 150.542 217.194 150.794 217.655 151.298C218.116 151.802 218.347 152.507 218.347 153.413C218.347 153.964 218.229 154.458 217.995 154.896C217.765 155.329 217.433 155.667 216.999 155.909C216.565 156.147 216.054 156.267 215.464 156.267C214.948 156.267 214.47 156.163 214.028 155.956C213.587 155.745 213.237 155.45 212.979 155.071C212.726 154.692 212.591 154.261 212.575 153.776H214.251C214.286 154.132 214.409 154.409 214.62 154.608C214.835 154.804 215.114 154.901 215.458 154.901C215.841 154.901 216.136 154.765 216.343 154.491C216.55 154.214 216.653 153.823 216.653 153.319C216.653 152.835 216.534 152.464 216.296 152.206C216.058 151.948 215.72 151.819 215.282 151.819C214.88 151.819 214.554 151.925 214.304 152.136L214.14 152.288L212.792 151.954Z" fill="#ACCDF1"/>
</svg>
