<svg width="474" height="211" viewBox="0 0 474 211" fill="none" xmlns="http://www.w3.org/2000/svg">
<path d="M243.503 87.5966C245.056 87.5966 246.316 86.3374 246.316 84.7841C246.316 83.2308 245.056 81.9716 243.503 81.9716C241.95 81.9716 240.691 83.2308 240.691 84.7841C240.691 86.3374 241.95 87.5966 243.503 87.5966ZM319.898 82.5021H314.004V84.407H319.898V82.5021ZM331.469 90.179C334.269 90.179 336.308 88.5746 336.301 86.3629C336.308 84.7266 335.285 83.5504 333.45 83.2884V83.1861C334.869 82.8793 335.822 81.8246 335.816 80.3544C335.822 78.3601 334.122 76.7301 331.507 76.7301C328.963 76.7301 326.994 78.245 326.943 80.4375H329.225C329.264 79.3381 330.286 78.6541 331.494 78.6541C332.715 78.6541 333.527 79.3956 333.521 80.495C333.527 81.6392 332.581 82.3999 331.226 82.3999H330.069V84.228H331.226C332.882 84.228 333.866 85.0589 333.86 86.2415C333.866 87.3984 332.862 88.1911 331.463 88.1911C330.146 88.1911 329.129 87.5071 329.072 86.4396H326.669C326.732 88.6513 328.708 90.179 331.469 90.179ZM343.334 90.2493C346.492 90.2557 348.377 87.7628 348.377 83.4673C348.377 79.1974 346.479 76.7301 343.334 76.7301C340.189 76.7301 338.297 79.1911 338.291 83.4673C338.291 87.7564 340.176 90.2493 343.334 90.2493ZM343.334 88.2486C341.704 88.2486 340.681 86.6122 340.688 83.4673C340.694 80.348 341.711 78.7053 343.334 78.7053C344.964 78.7053 345.98 80.348 345.987 83.4673C345.987 86.6122 344.971 88.2486 343.334 88.2486ZM355.871 76.2955H353.844L349.626 91.9688H351.652L355.871 76.2955ZM357.801 90H360.262L365.823 78.9354V76.9091H356.906V78.8906H363.368V78.9801L357.801 90ZM372.261 90.179C375.029 90.179 376.96 88.2997 376.96 85.6982C376.96 83.1797 375.208 81.3643 372.83 81.3643C371.769 81.3643 370.83 81.7862 370.344 82.3615H370.267L370.644 78.8906H376.276V76.9091H368.682L367.998 83.6591L370.139 84.0107C370.58 83.5249 371.411 83.1989 372.197 83.2053C373.636 83.2116 374.671 84.2727 374.665 85.7557C374.671 87.2195 373.661 88.2614 372.261 88.2614C371.079 88.2614 370.126 87.5135 370.043 86.4396H367.742C367.806 88.6129 369.705 90.179 372.261 90.179ZM243.503 109.597C245.056 109.597 246.316 108.337 246.316 106.784C246.316 105.231 245.056 103.972 243.503 103.972C241.95 103.972 240.691 105.231 240.691 106.784C240.691 108.337 241.95 109.597 243.503 109.597ZM324.433 104.502H318.539V106.407H324.433V104.502ZM336.004 112.179C338.804 112.179 340.843 110.575 340.836 108.363C340.843 106.727 339.82 105.55 337.986 105.288V105.186C339.405 104.879 340.357 103.825 340.351 102.354C340.357 100.36 338.657 98.7301 336.042 98.7301C333.498 98.7301 331.53 100.245 331.479 102.438H333.76C333.799 101.338 334.822 100.654 336.03 100.654C337.251 100.654 338.062 101.396 338.056 102.495C338.062 103.639 337.116 104.4 335.761 104.4H334.604V106.228H335.761C337.417 106.228 338.401 107.059 338.395 108.241C338.401 109.398 337.398 110.191 335.998 110.191C334.681 110.191 333.665 109.507 333.607 108.44H331.204C331.268 110.651 333.243 112.179 336.004 112.179ZM343.51 112H345.971L351.532 100.935V98.9091H342.615V100.891H349.077V100.98L343.51 112ZM358.964 98.2955H356.938L352.719 113.969H354.746L358.964 98.2955ZM360.895 112H363.356L368.917 100.935V98.9091H360V100.891H366.462V100.98L360.895 112ZM375.355 112.179C378.123 112.179 380.053 110.3 380.053 107.698C380.053 105.18 378.302 103.364 375.924 103.364C374.863 103.364 373.923 103.786 373.438 104.362H373.361L373.738 100.891H379.369V98.9091H371.776L371.092 105.659L373.233 106.011C373.674 105.525 374.505 105.199 375.291 105.205C376.729 105.212 377.765 106.273 377.759 107.756C377.765 109.219 376.755 110.261 375.355 110.261C374.173 110.261 373.22 109.513 373.137 108.44H370.836C370.9 110.613 372.798 112.179 375.355 112.179ZM243.503 131.597C245.056 131.597 246.316 130.337 246.316 128.784C246.316 127.231 245.056 125.972 243.503 125.972C241.95 125.972 240.691 127.231 240.691 128.784C240.691 130.337 241.95 131.597 243.503 131.597ZM324.345 126.502H318.452V128.407H324.345V126.502ZM335.871 134.179C338.703 134.179 340.729 132.619 340.736 130.491C340.729 128.854 339.521 127.487 338 127.231V127.141C339.323 126.847 340.244 125.658 340.25 124.239C340.244 122.226 338.39 120.73 335.871 120.73C333.334 120.73 331.48 122.219 331.487 124.239C331.48 125.658 332.388 126.847 333.737 127.141V127.231C332.19 127.487 330.994 128.854 331.001 130.491C330.994 132.619 333.014 134.179 335.871 134.179ZM335.871 132.351C334.388 132.351 333.43 131.533 333.442 130.325C333.43 129.072 334.459 128.183 335.871 128.183C337.265 128.183 338.288 129.078 338.3 130.325C338.288 131.533 337.335 132.351 335.871 132.351ZM335.871 126.387C334.657 126.387 333.788 125.601 333.8 124.463C333.788 123.338 334.631 122.584 335.871 122.584C337.092 122.584 337.93 123.338 337.942 124.463C337.93 125.607 337.067 126.387 335.871 126.387ZM348.206 120.295H346.18L341.961 135.969H343.988L348.206 120.295ZM350.137 134H352.598L358.159 122.935V120.909H349.242V122.891H355.704V122.98L350.137 134ZM364.597 134.179C367.365 134.179 369.295 132.3 369.295 129.698C369.295 127.18 367.544 125.364 365.166 125.364C364.105 125.364 363.165 125.786 362.68 126.362H362.603L362.98 122.891H368.612V120.909H361.018L360.334 127.659L362.475 128.011C362.916 127.525 363.747 127.199 364.533 127.205C365.972 127.212 367.007 128.273 367.001 129.756C367.007 131.219 365.997 132.261 364.597 132.261C363.415 132.261 362.462 131.513 362.379 130.44H360.078C360.142 132.613 362.04 134.179 364.597 134.179Z" fill="black"/>
<path d="M267.061 81.0895H269.477C269.075 78.5199 266.85 76.7301 263.955 76.7301C260.528 76.7301 257.959 79.2486 257.959 83.4673C257.959 87.6094 260.413 90.179 264.025 90.179C267.266 90.179 269.586 88.0952 269.586 84.7202V83.1477H264.274V85.0014H267.291C267.253 86.8679 266.006 88.0504 264.038 88.0504C261.845 88.0504 260.343 86.4077 260.343 83.4418C260.343 80.495 261.871 78.8587 263.987 78.8587C265.565 78.8587 266.639 79.7024 267.061 81.0895ZM276.059 90.1918C278.936 90.1918 280.764 88.1655 280.764 85.1293C280.764 82.0866 278.936 80.054 276.059 80.054C273.183 80.054 271.355 82.0866 271.355 85.1293C271.355 88.1655 273.183 90.1918 276.059 90.1918ZM276.072 88.3381C274.481 88.3381 273.701 86.919 273.701 85.1229C273.701 83.3267 274.481 81.8885 276.072 81.8885C277.638 81.8885 278.418 83.3267 278.418 85.1229C278.418 86.919 277.638 88.3381 276.072 88.3381ZM287.011 90.1918C289.887 90.1918 291.715 88.1655 291.715 85.1293C291.715 82.0866 289.887 80.054 287.011 80.054C284.134 80.054 282.306 82.0866 282.306 85.1293C282.306 88.1655 284.134 90.1918 287.011 90.1918ZM287.023 88.3381C285.432 88.3381 284.652 86.919 284.652 85.1229C284.652 83.3267 285.432 81.8885 287.023 81.8885C288.589 81.8885 289.369 83.3267 289.369 85.1229C289.369 86.919 288.589 88.3381 287.023 88.3381ZM297.323 90.1726C299.01 90.1726 299.771 89.169 300.135 88.4531H300.276V90H302.551V76.9091H300.231V81.8054H300.135C299.784 81.0959 299.061 80.054 297.329 80.054C295.06 80.054 293.276 81.831 293.276 85.1037C293.276 88.3381 295.009 90.1726 297.323 90.1726ZM297.968 88.2741C296.441 88.2741 295.635 86.9318 295.635 85.0909C295.635 83.2628 296.428 81.9524 297.968 81.9524C299.458 81.9524 300.276 83.1861 300.276 85.0909C300.276 86.9957 299.445 88.2741 297.968 88.2741Z" fill="#39CA22"/>
<path d="M258.291 112H263.59C266.588 112 268.058 110.472 268.058 108.433C268.058 106.452 266.652 105.288 265.259 105.218V105.09C266.537 104.79 267.547 103.895 267.547 102.303C267.547 100.354 266.141 98.9091 263.303 98.9091H258.291V112ZM260.663 110.018V106.183H263.277C264.741 106.183 265.648 107.078 265.648 108.248C265.648 109.29 264.933 110.018 263.213 110.018H260.663ZM260.663 104.477V100.865H263.06C264.453 100.865 265.175 101.6 265.175 102.61C265.175 103.761 264.242 104.477 263.009 104.477H260.663ZM272.844 112.198C274.385 112.198 275.305 111.476 275.727 110.651H275.804V112H278.028V105.429C278.028 102.834 275.912 102.054 274.04 102.054C271.975 102.054 270.39 102.974 269.878 104.764L272.039 105.071C272.269 104.4 272.921 103.825 274.052 103.825C275.126 103.825 275.714 104.374 275.714 105.339V105.378C275.714 106.043 275.018 106.075 273.285 106.26C271.381 106.464 269.559 107.033 269.559 109.245C269.559 111.175 270.971 112.198 272.844 112.198ZM273.445 110.498C272.48 110.498 271.79 110.057 271.79 109.207C271.79 108.318 272.563 107.947 273.599 107.8C274.206 107.717 275.42 107.564 275.721 107.321V108.478C275.721 109.571 274.839 110.498 273.445 110.498ZM283.998 112.173C285.686 112.173 286.447 111.169 286.811 110.453H286.952V112H289.227V98.9091H286.907V103.805H286.811C286.459 103.096 285.737 102.054 284.005 102.054C281.736 102.054 279.952 103.831 279.952 107.104C279.952 110.338 281.684 112.173 283.998 112.173ZM284.644 110.274C283.116 110.274 282.311 108.932 282.311 107.091C282.311 105.263 283.104 103.952 284.644 103.952C286.133 103.952 286.952 105.186 286.952 107.091C286.952 108.996 286.121 110.274 284.644 110.274Z" fill="#E0B312"/>
<path d="M265.406 124.508H267.688C267.643 122.296 265.757 120.73 262.97 120.73C260.222 120.73 258.157 122.277 258.163 124.591C258.163 126.47 259.499 127.55 261.653 128.107L263.143 128.49C264.555 128.848 265.489 129.289 265.495 130.305C265.489 131.424 264.428 132.172 262.881 132.172C261.398 132.172 260.247 131.507 260.151 130.133H257.818C257.914 132.734 259.851 134.198 262.9 134.198C266.038 134.198 267.86 132.632 267.866 130.325C267.86 128.055 265.987 127.02 264.018 126.553L262.791 126.246C261.717 125.991 260.554 125.537 260.567 124.444C260.573 123.46 261.455 122.737 262.938 122.737C264.351 122.737 265.284 123.396 265.406 124.508ZM269.878 134H272.192V130.702L273.036 129.8L276.04 134H278.808L274.781 128.42L278.584 124.182H275.881L272.352 128.126H272.192V120.909H269.878V134ZM280.126 134H282.44V124.182H280.126V134ZM281.29 122.788C282.025 122.788 282.626 122.226 282.626 121.536C282.626 120.839 282.025 120.276 281.29 120.276C280.548 120.276 279.947 120.839 279.947 121.536C279.947 122.226 280.548 122.788 281.29 122.788ZM284.82 137.682H287.134V132.453H287.23C287.594 133.169 288.355 134.173 290.042 134.173C292.356 134.173 294.088 132.338 294.088 129.104C294.088 125.831 292.305 124.054 290.036 124.054C288.303 124.054 287.581 125.096 287.23 125.805H287.095V124.182H284.82V137.682ZM287.089 129.091C287.089 127.186 287.907 125.952 289.396 125.952C290.937 125.952 291.73 127.263 291.73 129.091C291.73 130.932 290.924 132.274 289.396 132.274C287.92 132.274 287.089 130.996 287.089 129.091Z" fill="#DF1818"/>
<path d="M160.797 112.38C160.797 101.449 158.58 90.6319 154.283 80.5914C149.986 70.5508 143.698 61.4977 135.805 53.9854C127.911 46.4731 118.577 40.6596 108.374 36.9004C98.1709 33.1412 87.3128 31.5152 76.4636 32.122C65.6145 32.7287 55.0024 35.5554 45.2763 40.4292C35.5501 45.3031 26.9143 52.1215 19.8969 60.4678C12.8795 68.814 7.62794 78.5125 4.46344 88.9703C1.29893 99.4281 0.28795 110.425 1.4923 121.29L41.1953 116.835C40.5932 111.403 41.0986 105.904 42.6809 100.675C44.2631 95.4464 46.8889 90.5972 50.3976 86.4241C53.9063 82.2509 58.2242 78.8417 63.0873 76.4048C67.9504 73.9679 73.2564 72.5545 78.681 72.2512C84.1056 71.9478 89.5346 72.7607 94.6362 74.6404C99.7378 76.52 104.405 79.4267 108.352 83.1829C112.298 86.939 115.442 91.4656 117.591 96.4858C119.739 101.506 120.848 106.915 120.848 112.38H160.797Z" fill="#E0B312" stroke="white"/>
<path d="M1.49219 121.29C3.2098 136.784 9.36911 151.442 19.2198 163.477C29.0706 175.512 42.1876 184.406 56.9731 189.074C71.7587 193.743 87.5746 193.985 102.494 189.771C117.414 185.556 130.794 177.068 141.004 165.34L110.951 138.86C105.846 144.724 99.1562 148.968 91.6963 151.075C84.2364 153.182 76.3285 153.061 68.9357 150.727C61.5429 148.393 54.9844 143.946 50.059 137.929C45.1337 131.911 42.054 124.582 41.1952 116.835L1.49219 121.29Z" fill="#39CA22" stroke="white"/>
<path d="M141.004 165.34C153.763 150.683 160.797 131.863 160.797 112.38H120.848C120.848 122.122 117.331 131.532 110.951 138.86L141.004 165.34Z" fill="#DF1818" stroke="white"/>
<path d="M76.4632 32.122L75.3545 12.0574" stroke="#8E01D3"/>
<path d="M45.7416 6.20703H46.556C47.0677 6.19922 47.4701 6.06445 47.7631 5.80273C48.056 5.54102 48.2025 5.1875 48.2025 4.74219C48.2025 3.74219 47.7045 3.24219 46.7084 3.24219C46.2396 3.24219 45.8646 3.37695 45.5834 3.64648C45.306 3.91211 45.1673 4.26562 45.1673 4.70703H44.0834C44.0834 4.03125 44.3295 3.4707 44.8216 3.02539C45.3177 2.57617 45.9466 2.35156 46.7084 2.35156C47.5131 2.35156 48.1439 2.56445 48.6009 2.99023C49.058 3.41602 49.2865 4.00781 49.2865 4.76562C49.2865 5.13672 49.1654 5.49609 48.9232 5.84375C48.6849 6.19141 48.3588 6.45117 47.9447 6.62305C48.4134 6.77148 48.7748 7.01758 49.0287 7.36133C49.2865 7.70508 49.4154 8.125 49.4154 8.62109C49.4154 9.38672 49.1654 9.99414 48.6654 10.4434C48.1654 10.8926 47.515 11.1172 46.7142 11.1172C45.9134 11.1172 45.2611 10.9004 44.7572 10.4668C44.2572 10.0332 44.0072 9.46094 44.0072 8.75H45.097C45.097 9.19922 45.2435 9.55859 45.5365 9.82812C45.8295 10.0977 46.222 10.2324 46.7142 10.2324C47.2377 10.2324 47.6381 10.0957 47.9154 9.82227C48.1927 9.54883 48.3314 9.15625 48.3314 8.64453C48.3314 8.14844 48.1791 7.76758 47.8744 7.50195C47.5697 7.23633 47.1302 7.09961 46.556 7.0918H45.7416V6.20703ZM56.4115 3.07812L52.8783 11H51.7416L55.2631 3.35938H50.6459V2.46875H56.4115V3.07812ZM57.9701 11.7324H57.0384L60.6009 2.46875H61.5267L57.9701 11.7324ZM68.0951 3.07812L64.5619 11H63.4252L66.9466 3.35938H62.3295V2.46875H68.0951V3.07812ZM69.8236 6.72266L70.2572 2.46875H74.6283V3.4707H71.1771L70.9193 5.79688C71.3373 5.55078 71.8119 5.42773 72.3431 5.42773C73.1205 5.42773 73.7377 5.68555 74.1947 6.20117C74.6517 6.71289 74.8802 7.40625 74.8802 8.28125C74.8802 9.16016 74.642 9.85352 74.1654 10.3613C73.6927 10.8652 73.0306 11.1172 72.1791 11.1172C71.4252 11.1172 70.8099 10.9082 70.3334 10.4902C69.8568 10.0723 69.5853 9.49414 69.5189 8.75586H70.5443C70.6107 9.24414 70.7845 9.61328 71.0658 9.86328C71.347 10.1094 71.7181 10.2324 72.1791 10.2324C72.683 10.2324 73.0775 10.0605 73.3627 9.7168C73.6517 9.37305 73.7963 8.89844 73.7963 8.29297C73.7963 7.72266 73.64 7.26562 73.3275 6.92188C73.0189 6.57422 72.6068 6.40039 72.0912 6.40039C71.6185 6.40039 71.2474 6.50391 70.9779 6.71094L70.6908 6.94531L69.8236 6.72266Z" fill="#8E01D3"/>
<path d="M56.9735 189.074L50.9922 208.248" stroke="#8E01D3"/>
<path d="M21.3793 202.397H22.1937C22.7054 202.39 23.1078 202.255 23.4007 201.993C23.6937 201.731 23.8402 201.378 23.8402 200.933C23.8402 199.933 23.3422 199.433 22.3461 199.433C21.8773 199.433 21.5023 199.567 21.2211 199.837C20.9437 200.103 20.805 200.456 20.805 200.897H19.7211C19.7211 200.222 19.9672 199.661 20.4593 199.216C20.9554 198.767 21.5843 198.542 22.3461 198.542C23.1507 198.542 23.7816 198.755 24.2386 199.181C24.6957 199.606 24.9242 200.198 24.9242 200.956C24.9242 201.327 24.8031 201.687 24.5609 202.034C24.3226 202.382 23.9965 202.642 23.5824 202.813C24.0511 202.962 24.4125 203.208 24.6664 203.552C24.9242 203.896 25.0531 204.315 25.0531 204.812C25.0531 205.577 24.8031 206.185 24.3031 206.634C23.8031 207.083 23.1527 207.308 22.3519 207.308C21.5511 207.308 20.8988 207.091 20.3949 206.657C19.8949 206.224 19.6449 205.651 19.6449 204.94H20.7347C20.7347 205.39 20.8812 205.749 21.1742 206.019C21.4672 206.288 21.8597 206.423 22.3519 206.423C22.8754 206.423 23.2757 206.286 23.5531 206.013C23.8304 205.739 23.9691 205.347 23.9691 204.835C23.9691 204.339 23.8168 203.958 23.5121 203.692C23.2074 203.427 22.7679 203.29 22.1937 203.282H21.3793V202.397ZM31.891 203.552C31.891 204.821 31.6742 205.765 31.2406 206.382C30.807 206.999 30.1293 207.308 29.2074 207.308C28.2972 207.308 27.6234 207.007 27.1859 206.405C26.7484 205.8 26.5218 204.897 26.5062 203.698V202.251C26.5062 200.997 26.723 200.065 27.1566 199.456C27.5902 198.847 28.2699 198.542 29.1957 198.542C30.1136 198.542 30.7894 198.837 31.223 199.427C31.6566 200.013 31.8793 200.919 31.891 202.146V203.552ZM30.807 202.069C30.807 201.151 30.6781 200.483 30.4203 200.065C30.1625 199.644 29.7543 199.433 29.1957 199.433C28.641 199.433 28.2367 199.642 27.9828 200.06C27.7289 200.478 27.598 201.12 27.5902 201.987V203.722C27.5902 204.644 27.723 205.325 27.9886 205.767C28.2582 206.204 28.6644 206.423 29.2074 206.423C29.7425 206.423 30.139 206.216 30.3968 205.802C30.6586 205.388 30.7953 204.735 30.807 203.845V202.069ZM33.6078 207.923H32.6761L36.2386 198.659H37.1644L33.6078 207.923ZM43.7328 199.269L40.1996 207.19H39.0629L42.5843 199.55H37.9672V198.659H43.7328V199.269ZM45.4613 202.913L45.8949 198.659H50.266V199.661H46.8148L46.557 201.987C46.975 201.741 47.4496 201.618 47.9808 201.618C48.7582 201.618 49.3754 201.876 49.8324 202.392C50.2894 202.903 50.5179 203.597 50.5179 204.472C50.5179 205.351 50.2797 206.044 49.8031 206.552C49.3304 207.056 48.6683 207.308 47.8168 207.308C47.0629 207.308 46.4476 207.099 45.9711 206.681C45.4945 206.263 45.223 205.685 45.1566 204.946H46.182C46.2484 205.435 46.4222 205.804 46.7035 206.054C46.9847 206.3 47.3558 206.423 47.8168 206.423C48.3207 206.423 48.7152 206.251 49.0004 205.907C49.2894 205.563 49.434 205.089 49.434 204.483C49.434 203.913 49.2777 203.456 48.9652 203.112C48.6566 202.765 48.2445 202.591 47.7289 202.591C47.2562 202.591 46.8851 202.694 46.6156 202.901L46.3285 203.136L45.4613 202.913Z" fill="#8E01D3"/>
<path d="M155.685 140.67L174.381 147.742" stroke="#8E01D3"/>
<path d="M180.265 140.38C180.265 140.806 180.151 141.185 179.925 141.517C179.702 141.849 179.399 142.109 179.017 142.296C179.462 142.488 179.813 142.767 180.071 143.134C180.333 143.501 180.464 143.917 180.464 144.382C180.464 145.121 180.214 145.708 179.714 146.146C179.218 146.583 178.563 146.802 177.751 146.802C176.931 146.802 176.272 146.583 175.776 146.146C175.284 145.705 175.038 145.117 175.038 144.382C175.038 143.921 175.163 143.505 175.413 143.134C175.667 142.763 176.017 142.482 176.462 142.291C176.083 142.103 175.784 141.843 175.565 141.511C175.347 141.179 175.237 140.802 175.237 140.38C175.237 139.662 175.468 139.091 175.929 138.669C176.39 138.248 176.997 138.037 177.751 138.037C178.501 138.037 179.106 138.248 179.567 138.669C180.032 139.091 180.265 139.662 180.265 140.38ZM179.38 144.359C179.38 143.882 179.228 143.494 178.923 143.193C178.622 142.892 178.228 142.742 177.739 142.742C177.251 142.742 176.858 142.89 176.562 143.187C176.269 143.484 176.122 143.875 176.122 144.359C176.122 144.843 176.265 145.224 176.55 145.501C176.839 145.779 177.239 145.917 177.751 145.917C178.259 145.917 178.657 145.779 178.946 145.501C179.235 145.22 179.38 144.839 179.38 144.359ZM177.751 138.927C177.325 138.927 176.979 139.06 176.714 139.326C176.452 139.587 176.321 139.945 176.321 140.398C176.321 140.832 176.45 141.183 176.708 141.453C176.97 141.718 177.317 141.851 177.751 141.851C178.185 141.851 178.53 141.718 178.788 141.453C179.05 141.183 179.181 140.832 179.181 140.398C179.181 139.964 179.046 139.611 178.776 139.337C178.507 139.064 178.165 138.927 177.751 138.927ZM182.157 147.417H181.226L184.788 138.154H185.714L182.157 147.417ZM192.282 138.763L188.749 146.685H187.612L191.134 139.044H186.517V138.154H192.282V138.763ZM194.011 142.408L194.444 138.154H198.815V139.156H195.364L195.106 141.482C195.524 141.236 195.999 141.113 196.53 141.113C197.308 141.113 197.925 141.371 198.382 141.886C198.839 142.398 199.067 143.091 199.067 143.966C199.067 144.845 198.829 145.539 198.353 146.046C197.88 146.55 197.218 146.802 196.366 146.802C195.612 146.802 194.997 146.593 194.521 146.175C194.044 145.757 193.772 145.179 193.706 144.441H194.731C194.798 144.929 194.972 145.298 195.253 145.548C195.534 145.794 195.905 145.917 196.366 145.917C196.87 145.917 197.265 145.746 197.55 145.402C197.839 145.058 197.983 144.583 197.983 143.978C197.983 143.408 197.827 142.951 197.515 142.607C197.206 142.259 196.794 142.085 196.278 142.085C195.806 142.085 195.435 142.189 195.165 142.396L194.878 142.63L194.011 142.408Z" fill="#8E01D3"/>
</svg>
