<svg width="104" height="28" viewBox="0 0 104 28" fill="none" xmlns="http://www.w3.org/2000/svg">
<path d="M0.720881 1.54545L10.0053 18.0014V27H15.3498V18.0014L24.6342 1.54545H18.6062L12.8018 12.5078H12.5533L6.74893 1.54545H0.720881ZM32.1351 27.3729C37.927 27.3729 41.5314 23.408 41.5314 17.5291C41.5314 11.6129 37.927 7.66051 32.1351 7.66051C26.3432 7.66051 22.7388 11.6129 22.7388 17.5291C22.7388 23.408 26.3432 27.3729 32.1351 27.3729ZM32.16 23.2713C29.4877 23.2713 28.1206 20.8228 28.1206 17.4918C28.1206 14.1609 29.4877 11.6999 32.16 11.6999C34.7825 11.6999 36.1497 14.1609 36.1497 17.4918C36.1497 20.8228 34.7825 23.2713 32.16 23.2713ZM53.6 27.3729C59.3919 27.3729 62.9963 23.408 62.9963 17.5291C62.9963 11.6129 59.3919 7.66051 53.6 7.66051C47.8081 7.66051 44.2037 11.6129 44.2037 17.5291C44.2037 23.408 47.8081 27.3729 53.6 27.3729ZM53.6248 23.2713C50.9526 23.2713 49.5854 20.8228 49.5854 17.4918C49.5854 14.1609 50.9526 11.6999 53.6248 11.6999C56.2473 11.6999 57.6145 14.1609 57.6145 17.4918C57.6145 20.8228 56.2473 23.2713 53.6248 23.2713Z" fill="#5EC0AB"/>
<path d="M66.4391 27H71.7338V15.5405C71.7338 13.4276 73.0762 12.0231 74.8411 12.0231C76.5811 12.0231 77.7495 13.2163 77.7495 15.093V27H82.8826V15.3416C82.8826 13.3654 84.0137 12.0231 85.9402 12.0231C87.6305 12.0231 88.8983 13.0795 88.8983 15.2049V27H94.1806V14.1609C94.1806 10.022 91.7196 7.66051 88.165 7.66051C85.3684 7.66051 83.1934 9.08984 82.4103 11.2773H82.2115C81.6025 9.06499 79.6511 7.66051 77.0286 7.66051C74.4558 7.66051 72.5044 9.0277 71.709 11.2773H71.4853V7.90909H66.4391V27ZM98.3629 27H103.658V7.90909H98.3629V27ZM101.023 5.44815C102.601 5.44815 103.894 4.24254 103.894 2.76349C103.894 1.29688 102.601 0.0912629 101.023 0.0912629C99.4567 0.0912629 98.1641 1.29688 98.1641 2.76349C98.1641 4.24254 99.4567 5.44815 101.023 5.44815Z" fill="white"/>
</svg>
