<svg width="40" height="41" viewBox="0 0 40 41" fill="none" xmlns="http://www.w3.org/2000/svg">
<path d="M39.5 20.2135C39.5 31.106 30.7646 39.927 20 39.927C9.23544 39.927 0.5 31.106 0.5 20.2135C0.5 9.32102 9.23544 0.5 20 0.5C30.7646 0.5 39.5 9.32102 39.5 20.2135Z" fill="white" stroke="#009D2C"/>
<path d="M27.3337 29.8911V10.3512H12.8337V28.6698C12.8337 28.9937 12.961 29.3043 13.1876 29.5334C13.4142 29.7624 13.7215 29.8911 14.042 29.8911H27.3337ZM30.9587 32.3335H14.042C13.0806 32.3335 12.1585 31.9475 11.4787 31.2605C10.7989 30.5734 10.417 29.6415 10.417 28.6698V9.12993C10.417 8.80604 10.5443 8.49541 10.7709 8.26638C10.9975 8.03736 11.3049 7.90869 11.6253 7.90869H28.542C28.8625 7.90869 29.1698 8.03736 29.3964 8.26638C29.623 8.49541 29.7503 8.80604 29.7503 9.12993V17.6786H34.5837V28.6698C34.5837 29.6415 34.2017 30.5734 33.5219 31.2605C32.8421 31.9475 31.9201 32.3335 30.9587 32.3335ZM29.7503 20.1211V28.6698C29.7503 28.9937 29.8776 29.3043 30.1042 29.5334C30.3308 29.7624 30.6382 29.8911 30.9587 29.8911C31.2791 29.8911 31.5865 29.7624 31.8131 29.5334C32.0397 29.3043 32.167 28.9937 32.167 28.6698V20.1211H29.7503ZM15.2503 12.7937H22.5003V20.1211H15.2503V12.7937ZM17.667 15.2361V17.6786H20.0837V15.2361H17.667ZM15.2503 21.3424H24.917V23.7848H15.2503V21.3424ZM15.2503 25.0061H24.917V27.4486H15.2503V25.0061Z" fill="#009D2C"/>
</svg>
