<svg width="40" height="40" viewBox="0 0 40 40" fill="none" xmlns="http://www.w3.org/2000/svg">
<circle cx="20" cy="20" r="19.5" fill="white" stroke="#009D2C"/>
<path d="M31.0076 27.9996C30.3195 27.3406 29.6499 26.6627 28.9994 25.9666C28.4529 25.4114 28.1238 25.0074 28.1238 25.0074L24.0105 23.0435C25.6573 21.176 26.5661 18.772 26.5666 16.2822C26.5666 10.6138 21.9538 6 16.2833 6C10.6128 6 6 10.6138 6 16.2822C6 21.9507 10.6128 26.5645 16.2833 26.5645C18.8732 26.5645 21.234 25.595 23.0453 24.0101L25.0094 28.123C25.0094 28.123 25.4134 28.452 25.9687 28.9984C26.5373 29.5316 27.285 30.2529 28.0019 31.0064L29.9969 33.0511L30.8842 34L34 30.8845L33.051 29.9973C32.4942 29.4508 31.7509 28.7252 31.0076 27.9996ZM16.2833 23.6267C12.2332 23.6267 8.93809 20.332 8.93809 16.2822C8.93809 12.2325 12.2332 8.93778 16.2833 8.93778C20.3335 8.93778 23.6285 12.2325 23.6285 16.2822C23.6285 20.332 20.3335 23.6267 16.2833 23.6267Z" fill="#009D2C"/>
</svg>
