<svg width="47" height="47" viewBox="0 0 47 47" fill="none" xmlns="http://www.w3.org/2000/svg">
<path d="M33.3841 0C31.9478 0 30.4834 0.556875 29.3997 1.64062C28.7141 2.33981 28.2285 3.21001 27.9934 4.16062C27.6034 4.08 27.2247 3.98438 26.8216 3.98438C25.3853 3.98438 23.9209 4.48312 22.8372 5.56687C21.7959 6.61959 21.2119 8.04054 21.2119 9.52125C21.2119 11.002 21.7959 12.4229 22.8372 13.4756L24.4178 15.0581L15.0428 24.4331L13.4603 22.8525C12.9472 22.333 12.3361 21.9204 11.6625 21.6384C10.9889 21.3565 10.2662 21.2109 9.53594 21.21C8.09969 21.21 6.63532 21.7669 5.55157 22.8525C4.88835 23.5278 4.40627 24.3596 4.14997 25.2707C3.89366 26.1819 3.87143 27.143 4.08532 28.065C3.18532 28.3013 2.33594 28.7025 1.62532 29.415C0.584035 30.4677 0 31.8887 0 33.3694C0 34.8501 0.584035 36.271 1.62532 37.3237L1.68344 37.3838L4.20344 39.9619L2.91344 41.25L5.60969 43.9463L6.89969 42.6562L9.53594 45.2344C10.5887 46.2762 12.0101 46.8606 13.4913 46.8606C14.9724 46.8606 16.3938 46.2762 17.4466 45.2344C18.1212 44.5499 18.6059 43.7014 18.8528 42.7725C20.6528 43.1625 22.6159 42.6994 24.0091 41.31C25.0515 40.2571 25.6362 38.8354 25.6362 37.3538C25.6362 35.8721 25.0515 34.4504 24.0091 33.3975L22.4266 31.8169L31.8016 22.4419L33.3822 24.0244C34.4351 25.0668 35.8568 25.6515 37.3384 25.6515C38.8201 25.6515 40.2418 25.0668 41.2947 24.0244C42.6784 22.6312 43.1472 20.6681 42.7572 18.8681C43.6873 18.6242 44.5365 18.1392 45.2191 17.4619C46.2615 16.409 46.8462 14.9872 46.8462 13.5056C46.8462 12.024 46.2615 10.6023 45.2191 9.54938L42.6409 6.91688L43.9309 5.62687L41.2347 2.92875L39.9447 4.21875L37.3084 1.64062C36.7951 1.12146 36.184 0.709171 35.5104 0.427572C34.8369 0.145973 34.1142 0.000649462 33.3841 0ZM33.3841 3.75C33.6232 3.74687 33.8604 3.79191 34.0817 3.88243C34.303 3.97295 34.5038 4.1071 34.6722 4.27688L42.5828 12.1875C42.7573 12.3538 42.8961 12.5539 42.991 12.7754C43.0859 12.997 43.1348 13.2355 43.1348 13.4766C43.1348 13.7176 43.0859 13.9561 42.991 14.1777C42.8961 14.3993 42.7573 14.5993 42.5828 14.7656C42.4102 14.9399 42.2048 15.0783 41.9784 15.1728C41.752 15.2672 41.5091 15.3158 41.2638 15.3158C41.0184 15.3158 40.7756 15.2672 40.5492 15.1728C40.3227 15.0783 40.1173 14.9399 39.9447 14.7656L32.0941 6.91312C31.92 6.74056 31.7819 6.53523 31.6876 6.30899C31.5933 6.08276 31.5448 5.84009 31.5448 5.595C31.5448 5.34991 31.5933 5.10724 31.6876 4.88101C31.7819 4.65477 31.92 4.44944 32.0941 4.27688C32.2626 4.10687 32.4638 3.97259 32.6854 3.88206C32.9071 3.79153 33.1447 3.74662 33.3841 3.75ZM26.8216 7.67625C27.2903 7.67625 27.7441 7.89563 28.1097 8.26125L38.5984 18.75C38.7725 18.9226 38.9106 19.1279 39.0049 19.3541C39.0992 19.5804 39.1477 19.823 39.1477 20.0681C39.1477 20.3132 39.0992 20.5559 39.0049 20.7821C38.9106 21.0084 38.7725 21.2137 38.5984 21.3862C37.8672 22.1175 36.7609 22.0613 36.0203 21.3281H35.9603L25.4734 10.8394C24.7422 10.1081 24.7984 9.00188 25.5316 8.26125C25.8897 7.91813 26.3659 7.67625 26.8216 7.67625ZM27.0559 17.6944L29.1653 19.8056L19.7903 29.1806L17.6791 27.0712L27.0559 17.6944ZM9.53594 24.9619C10.0047 24.9619 10.4584 25.1812 10.8241 25.5469H10.8822L21.3709 36.0356C22.1022 36.7669 22.0459 37.8731 21.3128 38.6138C20.5816 39.3075 19.4603 39.3375 18.7347 38.6138L17.4447 37.3237L17.2122 37.1494L9.53594 29.415L8.24594 28.125C8.0719 27.9524 7.93376 27.7471 7.83949 27.5209C7.74522 27.2946 7.69668 27.052 7.69668 26.8069C7.69668 26.5618 7.74522 26.3191 7.83949 26.0929C7.93376 25.8666 8.0719 25.6613 8.24594 25.4888C8.41436 25.3184 8.61541 25.1838 8.83707 25.0929C9.05872 25.0021 9.29642 24.9569 9.53594 24.96V24.9619ZM5.55157 31.5244C6.02032 31.5244 6.53219 31.7437 6.89782 32.1094L14.7503 39.9619C14.9244 40.1344 15.0625 40.3398 15.1568 40.566C15.251 40.7922 15.2996 41.0349 15.2996 41.28C15.2996 41.5251 15.251 41.7678 15.1568 41.994C15.0625 42.2202 14.9244 42.4256 14.7503 42.5981C14.0191 43.3294 12.9128 43.3294 12.1722 42.5981L4.26157 34.6875C4.08714 34.5212 3.94828 34.3211 3.85341 34.0996C3.75853 33.878 3.70962 33.6395 3.70962 33.3984C3.70962 33.1574 3.75853 32.9189 3.85341 32.6973C3.94828 32.4757 4.08714 32.2757 4.26157 32.1094C4.62907 31.7437 5.08282 31.5225 5.55157 31.5225V31.5244Z" fill="black"/>
</svg>
